<?xml version="1.0" standalone="no"?>
<!DOCTYPE svg PUBLIC "-//W3C//DTD SVG 20010904//EN"
 "http://www.w3.org/TR/2001/REC-SVG-20010904/DTD/svg10.dtd">
<svg version="1.0" xmlns="http://www.w3.org/2000/svg"
 width="636.000000pt" height="530.000000pt" viewBox="0 0 636.000000 530.000000"
 preserveAspectRatio="xMidYMid meet">

<g transform="translate(0.000000,530.000000) scale(0.100000,-0.100000)"
fill="#000000" stroke="none">
<path d="M2860 4934 c-824 -116 -1484 -580 -1835 -1289 -113 -228 -179 -430
-225 -692 -27 -155 -38 -467 -21 -624 37 -338 139 -656 302 -941 57 -99 62
-99 74 -8 10 81 54 307 71 366 13 46 13 54 -6 110 -86 247 -122 457 -121 709
0 255 33 451 113 685 94 274 252 524 475 753 424 435 985 652 1599 616 168 -9
211 -15 334 -41 276 -58 596 -210 837 -396 257 -199 440 -426 578 -715 284
-596 271 -1282 -36 -1856 -57 -106 -82 -145 -176 -272 -34 -48 -63 -90 -63
-95 0 -5 62 -22 138 -37 193 -40 189 -39 211 -28 56 31 242 366 314 569 163
457 188 950 72 1408 -44 174 -91 298 -176 471 -115 235 -255 429 -444 618
-353 354 -797 586 -1285 672 -186 32 -561 41 -730 17z"/>
<path d="M2010 4044 c0 -2 19 -41 41 -86 117 -234 193 -308 344 -336 l40 -7
-60 -6 -60 -6 59 -1 60 -2 -207 -139 c-210 -142 -352 -245 -376 -275 -17 -21
-23 -21 168 4 85 11 157 18 159 15 6 -5 0 -12 -158 -194 -57 -67 -144 -176
-192 -243 -87 -122 -295 -484 -285 -495 3 -3 46 26 94 64 274 215 517 369 818
518 379 188 715 304 1143 396 146 31 186 49 111 49 -69 1 -121 30 -170 97 -50
66 -57 72 -119 115 l-45 30 50 -7 c78 -11 349 -73 464 -106 l103 -30 23 21
c12 11 32 43 45 70 28 61 31 58 -110 157 -129 92 -181 119 -267 139 -82 19
-345 33 -618 34 -427 1 -668 45 -942 175 -62 30 -113 52 -113 49z"/>
<path d="M4178 3463 c-8 -10 -41 -57 -73 -105 -65 -99 -72 -103 -235 -138
-151 -33 -306 -76 -477 -134 -278 -94 -447 -171 -456 -209 -38 -164 -201 -797
-211 -814 -12 -24 -14 -22 -100 79 -102 120 -114 128 -133 102 -27 -36 -133
-261 -176 -375 -123 -316 -171 -585 -171 -939 0 -217 20 -442 45 -507 12 -33
58 -58 194 -103 247 -82 441 -116 720 -126 350 -13 650 41 970 176 170 72 208
91 199 100 -5 5 -84 34 -174 65 -196 66 -408 169 -540 262 -126 89 -328 292
-411 413 -194 283 -257 470 -246 740 7 166 29 259 97 395 158 318 484 547 915
642 116 26 421 25 525 -1 181 -45 307 -136 380 -276 22 -44 46 -78 51 -74 6 3
8 12 5 19 -2 7 -1 16 4 21 14 15 30 112 30 181 0 143 -74 312 -187 429 -29 30
-63 50 -122 72 -93 36 -372 122 -393 122 -8 0 -22 -8 -30 -17z m27 -113 c13
-6 15 -9 5 -9 -8 0 -22 4 -30 9 -18 12 -2 12 25 0z m82 -26 c-3 -3 -12 -4 -19
-1 -8 3 -5 6 6 6 11 1 17 -2 13 -5z m233 -90 c0 -2 -9 0 -20 6 -11 6 -20 13
-20 16 0 2 9 0 20 -6 11 -6 20 -13 20 -16z m100 -79 c30 -30 52 -55 49 -55 -2
0 -29 25 -59 55 -30 30 -52 55 -49 55 2 0 29 -25 59 -55z m80 -95 c12 -16 19
-30 16 -30 -2 0 -14 14 -26 30 -12 17 -19 30 -16 30 2 0 14 -13 26 -30z m66
-111 c14 -28 24 -53 22 -55 -2 -2 -16 21 -31 51 -15 30 -25 55 -22 55 3 0 16
-23 31 -51z m54 -124 c0 -5 -5 -3 -10 5 -5 8 -10 20 -10 25 0 6 5 3 10 -5 5
-8 10 -19 10 -25z"/>
<path d="M4040 2935 c-8 -2 -49 -9 -90 -15 -90 -15 -260 -70 -344 -112 -167
-83 -356 -243 -441 -373 -50 -76 -99 -189 -126 -291 -29 -108 -32 -305 -5
-419 99 -430 487 -802 1026 -986 98 -34 255 -72 387 -94 89 -15 94 -15 130 4
92 47 446 382 426 402 -4 4 -76 22 -158 38 -252 50 -423 121 -604 249 -117 83
-276 238 -331 323 -190 292 -228 546 -116 767 62 122 185 242 301 294 59 26
239 64 415 88 111 15 133 21 123 31 -17 17 -182 68 -270 84 -75 13 -276 19
-323 10z"/>
<path d="M2590 2668 c-74 -27 -139 -53 -143 -57 -5 -5 21 -22 57 -39 53 -25
73 -41 111 -93 25 -34 50 -70 55 -78 5 -9 11 -13 14 -10 5 4 66 302 66 321 0
14 -20 8 -160 -44z"/>
<path d="M2140 2442 c-47 -20 -214 -100 -371 -178 l-286 -142 -21 -54 c-50
-122 -115 -381 -147 -583 -25 -151 -43 -357 -34 -380 14 -38 118 -153 226
-251 177 -159 318 -266 456 -342 l57 -32 0 32 c0 18 -7 76 -16 128 -24 153
-30 518 -10 684 44 369 145 673 326 980 27 47 50 91 50 99 0 20 -93 77 -123
76 -12 0 -60 -17 -107 -37z"/>
</g>
</svg>
